<svg width="16" height="16" viewBox="0 0 16 16" fill="none" xmlns="http://www.w3.org/2000/svg">
<path d="M7.95555 7.68889C9.15555 7.68889 10.0889 6.71111 10.0889 5.51111C10.0889 4.31111 9.1111 3.37778 7.9111 3.37778C6.7111 3.37778 5.77777 4.35555 5.77777 5.51111C5.77777 6.71111 6.75555 7.68889 7.95555 7.68889ZM7.9111 4.26667C7.95555 4.26667 7.95555 4.26667 7.9111 4.26667C8.62222 4.26667 9.19999 4.84444 9.19999 5.55555C9.19999 6.26667 8.62222 6.8 7.9111 6.8C7.19999 6.8 6.66666 6.22222 6.66666 5.55555C6.66666 4.84444 7.24444 4.26667 7.9111 4.26667Z" fill="black"/>
<path d="M14.5334 7.42223C13.6889 6.66667 12.5778 6.26667 11.4222 6.31111H11.0667C10.9778 6.66667 10.8445 6.97778 10.6667 7.24445C10.9334 7.2 11.1556 7.2 11.4222 7.2C12.2667 7.15556 13.1111 7.42223 13.7778 7.91111V11.1111H14.6667V7.55556L14.5334 7.42223Z" fill="black"/>
<path d="M10.4 3.46666C10.6222 2.93332 11.2444 2.66666 11.8222 2.88888C12.3555 3.1111 12.6222 3.73332 12.4 4.3111C12.2222 4.7111 11.8222 4.97777 11.4222 4.97777C11.3333 4.97777 11.2 4.97777 11.1111 4.93332C11.1555 5.15555 11.1555 5.37777 11.1555 5.55555V5.82221C11.2444 5.82221 11.3333 5.86666 11.4222 5.86666C12.5333 5.86666 13.4222 4.97777 13.4222 3.9111C13.4222 2.79999 12.5333 1.9111 11.4667 1.9111C10.7555 1.9111 10.1333 2.26666 9.77777 2.88888C9.99999 3.02221 10.2222 3.19999 10.4 3.46666Z" fill="black"/>
<path d="M5.33331 7.28889C5.15554 7.02222 5.0222 6.71111 4.93331 6.35555H4.57776C3.4222 6.31111 2.31109 6.71111 1.46665 7.42222L1.33331 7.55555V11.1111H2.2222V7.91111C2.93331 7.42222 3.73331 7.15555 4.57776 7.2C4.84442 7.2 5.11109 7.24444 5.33331 7.28889Z" fill="black"/>
<path d="M4.5778 5.82221C4.66669 5.82221 4.75558 5.82221 4.84447 5.77776V5.5111C4.84447 5.28887 4.84447 5.06665 4.88892 4.88887C4.80003 4.93332 4.66669 4.93332 4.5778 4.93332C4.00003 4.93332 3.51114 4.44443 3.51114 3.86665C3.51114 3.28887 4.00003 2.79999 4.5778 2.79999C5.02225 2.79999 5.42225 3.06665 5.60003 3.46665C5.7778 3.24443 6.04447 3.02221 6.26669 2.84443C5.68892 1.9111 4.48892 1.59999 3.55558 2.17776C2.62225 2.75554 2.31114 3.95554 2.88892 4.88887C3.24447 5.46665 3.86669 5.82221 4.5778 5.82221Z" fill="black"/>
<path d="M11.6 10.0889L11.5111 9.95555C10.6222 8.97777 9.37779 8.39999 8.04446 8.44444C6.71112 8.39999 5.42224 8.97777 4.53335 9.95555L4.44446 10.0889V13.4667C4.44446 13.8667 4.75557 14.2222 5.20001 14.2222H10.8889C11.2889 14.2222 11.6445 13.8667 11.6445 13.4667V10.0889H11.6ZM10.7111 13.3333H5.33335V10.4C6.04446 9.68888 7.02224 9.33333 8.04446 9.33333C9.02224 9.28888 10 9.68888 10.7111 10.4V13.3333Z" fill="black"/>
</svg>
