<svg width="20" height="18" viewBox="0 0 20 18" fill="none" xmlns="http://www.w3.org/2000/svg">
<path d="M9.94445 8.64999C11.4445 8.64999 12.6111 7.54999 12.6111 6.19999C12.6111 4.84999 11.3889 3.79999 9.8889 3.79999C8.3889 3.79999 7.22223 4.89999 7.22223 6.19999C7.22223 7.54999 8.44445 8.64999 9.94445 8.64999ZM9.8889 4.79999C9.94445 4.79999 9.94445 4.79999 9.8889 4.79999C10.7778 4.79999 11.5 5.44999 11.5 6.24999C11.5 7.04999 10.7778 7.64999 9.8889 7.64999C9.00001 7.64999 8.33334 6.99999 8.33334 6.24999C8.33334 5.44999 9.05556 4.79999 9.8889 4.79999Z" fill="white"/>
<path d="M18.1667 8.35002C17.1111 7.50002 15.7222 7.05002 14.2778 7.10002H13.8333C13.7222 7.50002 13.5556 7.85001 13.3333 8.15001C13.6667 8.10001 13.9445 8.10002 14.2778 8.10002C15.3333 8.05002 16.3889 8.35001 17.2222 8.90001V12.5H18.3333V8.50002L18.1667 8.35002Z" fill="white"/>
<path d="M13 3.89999C13.2778 3.29999 14.0556 2.99999 14.7778 3.24999C15.4445 3.49999 15.7778 4.19999 15.5 4.84999C15.2778 5.29999 14.7778 5.59999 14.2778 5.59999C14.1667 5.59999 14 5.59999 13.8889 5.54999C13.9445 5.79999 13.9445 6.04999 13.9445 6.24999V6.54999C14.0556 6.54999 14.1667 6.59999 14.2778 6.59999C15.6667 6.59999 16.7778 5.59999 16.7778 4.39999C16.7778 3.14999 15.6667 2.14999 14.3333 2.14999C13.4445 2.14999 12.6667 2.54999 12.2222 3.24999C12.5 3.39999 12.7778 3.59999 13 3.89999Z" fill="white"/>
<path d="M6.66666 8.20001C6.44443 7.90001 6.27777 7.55001 6.16666 7.15001H5.72221C4.27777 7.10001 2.88888 7.55001 1.83332 8.35001L1.66666 8.50001V12.5H2.77777V8.90001C3.66666 8.35001 4.66666 8.05001 5.72221 8.10001C6.05555 8.10001 6.38888 8.15001 6.66666 8.20001Z" fill="white"/>
<path d="M5.72221 6.54999C5.83332 6.54999 5.94443 6.54999 6.05554 6.49999V6.19999C6.05554 5.94999 6.05554 5.69999 6.1111 5.49999C5.99999 5.54999 5.83332 5.54999 5.72221 5.54999C4.99999 5.54999 4.38888 4.99999 4.38888 4.34999C4.38888 3.69999 4.99999 3.14999 5.72221 3.14999C6.27776 3.14999 6.77776 3.44999 6.99999 3.89999C7.22221 3.64999 7.55554 3.39999 7.83332 3.19999C7.1111 2.14999 5.6111 1.79999 4.44443 2.44999C3.27776 3.09999 2.88888 4.44999 3.6111 5.49999C4.05554 6.14999 4.83332 6.54999 5.72221 6.54999Z" fill="white"/>
<path d="M14.5 11.35L14.3889 11.2C13.2778 10.1 11.7222 9.45 10.0555 9.5C8.38888 9.45 6.77776 10.1 5.66665 11.2L5.55554 11.35V15.15C5.55554 15.6 5.94443 16 6.49999 16H13.6111C14.1111 16 14.5555 15.6 14.5555 15.15V11.35H14.5ZM13.3889 15H6.66665V11.7C7.55554 10.9 8.77776 10.5 10.0555 10.5C11.2778 10.45 12.5 10.9 13.3889 11.7V15Z" fill="white"/>
</svg>
