<svg width="16" height="16" viewBox="0 0 16 16" fill="none" xmlns="http://www.w3.org/2000/svg">
<path d="M13.4999 8.38V8V7.615L14.4599 6.775C14.6368 6.61903 14.753 6.40552 14.7877 6.1722C14.8225 5.93889 14.7737 5.7008 14.6499 5.5L13.4699 3.50001C13.3822 3.34814 13.2561 3.222 13.1043 3.13424C12.9525 3.04648 12.7802 3.00018 12.6049 3C12.4962 2.99917 12.3881 3.01606 12.2849 3.05L11.0699 3.46001C10.8601 3.32061 10.6413 3.19533 10.4149 3.08501L10.1599 1.825C10.1142 1.59481 9.98893 1.38803 9.80611 1.24086C9.62329 1.09369 9.39453 1.01551 9.15988 1.02H6.81988C6.58523 1.01551 6.35647 1.09369 6.17366 1.24086C5.99084 1.38803 5.8656 1.59481 5.81988 1.825L5.56488 3.08501C5.33685 3.19531 5.11637 3.32058 4.90488 3.46001L3.71488 3.03C3.61053 3.00282 3.50247 2.99269 3.39488 3C3.21952 3.00018 3.04729 3.04648 2.89546 3.13424C2.74364 3.222 2.61756 3.34814 2.52988 3.50001L1.34988 5.5C1.23318 5.7005 1.18981 5.93533 1.22721 6.16429C1.26461 6.39324 1.38044 6.60207 1.55488 6.755L2.49988 7.62V8.385L1.55488 9.22501C1.37552 9.379 1.25651 9.59157 1.21898 9.82498C1.18145 10.0584 1.22783 10.2975 1.34988 10.5L2.52988 12.5C2.61756 12.6519 2.74364 12.778 2.89546 12.8658C3.04729 12.9535 3.21952 12.9998 3.39488 13C3.50356 13.0008 3.61164 12.9839 3.71488 12.95L4.92988 12.54C5.13965 12.6794 5.35847 12.8047 5.58488 12.915L5.83988 14.175C5.8856 14.4052 6.01084 14.612 6.19366 14.7592C6.37647 14.9063 6.60523 14.9845 6.83988 14.98H9.19988C9.43453 14.9845 9.66329 14.9063 9.84611 14.7592C10.0289 14.612 10.1542 14.4052 10.1999 14.175L10.4549 12.915C10.6829 12.8047 10.9034 12.6794 11.1149 12.54L12.3249 12.95C12.4281 12.9839 12.5362 13.0008 12.6449 13C12.8202 12.9998 12.9925 12.9535 13.1443 12.8658C13.2961 12.778 13.4222 12.6519 13.5099 12.5L14.6499 10.5C14.7666 10.2995 14.81 10.0647 14.7726 9.83572C14.7352 9.60677 14.6193 9.39794 14.4449 9.245L13.4999 8.38ZM12.6049 12L10.8899 11.42C10.4884 11.7601 10.0296 12.0259 9.53488 12.205L9.17988 14H6.81988L6.46488 12.225C5.97409 12.0408 5.51774 11.7754 5.11488 11.44L3.39488 12L2.21488 10L3.57488 8.8C3.48243 8.28243 3.48243 7.75258 3.57488 7.235L2.21488 6L3.39488 4.00001L5.10988 4.58C5.51135 4.23995 5.97018 3.97413 6.46488 3.79501L6.81988 2H9.17988L9.53488 3.77501C10.0257 3.95922 10.482 4.22458 10.8849 4.56L12.6049 4.00001L13.7849 6L12.4249 7.2C12.5173 7.71758 12.5173 8.24743 12.4249 8.76501L13.7849 10L12.6049 12Z" fill="white"/>
<path d="M8 11C7.40666 11 6.82664 10.8241 6.33329 10.4944C5.83994 10.1648 5.45543 9.69623 5.22836 9.14805C5.0013 8.59987 4.94189 7.99667 5.05765 7.41473C5.1734 6.83279 5.45912 6.29824 5.87868 5.87868C6.29824 5.45912 6.83279 5.1734 7.41473 5.05765C7.99667 4.94189 8.59987 5.0013 9.14805 5.22836C9.69623 5.45543 10.1648 5.83994 10.4944 6.33329C10.8241 6.82664 11 7.40666 11 8C11.004 8.39508 10.9292 8.78699 10.7798 9.15278C10.6305 9.51857 10.4096 9.85088 10.1303 10.1303C9.85088 10.4096 9.51857 10.6305 9.15278 10.7798C8.78699 10.9292 8.39508 11.004 8 11ZM8 6C7.73567 5.99384 7.47284 6.04137 7.22741 6.1397C6.98197 6.23803 6.75904 6.38512 6.57208 6.57208C6.38512 6.75904 6.23803 6.98197 6.1397 7.22741C6.04137 7.47284 5.99384 7.73567 6 8C5.99384 8.26433 6.04137 8.52716 6.1397 8.77259C6.23803 9.01803 6.38512 9.24097 6.57208 9.42792C6.75904 9.61488 6.98197 9.76198 7.22741 9.86031C7.47284 9.95864 7.73567 10.0062 8 10C8.26433 10.0062 8.52716 9.95864 8.77259 9.86031C9.01803 9.76198 9.24097 9.61488 9.42792 9.42792C9.61488 9.24097 9.76198 9.01803 9.86031 8.77259C9.95864 8.52716 10.0062 8.26433 10 8C10.0062 7.73567 9.95864 7.47284 9.86031 7.22741C9.76198 6.98197 9.61488 6.75904 9.42792 6.57208C9.24097 6.38512 9.01803 6.23803 8.77259 6.1397C8.52716 6.04137 8.26433 5.99384 8 6Z" fill="white"/>
</svg>
