<svg width="34" height="34" viewBox="0 0 34 34" fill="none" xmlns="http://www.w3.org/2000/svg">
<path d="M10.4656 11.5499L11.4525 10.5481C11.5402 10.459 11.6286 10.4583 11.7176 10.5461L23.4724 22.1251C23.5615 22.2128 23.5622 22.3012 23.4744 22.3903L22.4876 23.3921C22.3999 23.4812 22.3115 23.4818 22.2224 23.3941L10.4676 11.8151C10.3786 11.7273 10.3779 11.6389 10.4656 11.5499Z" fill="black"/>
<path d="M10.8092 21.9553L21.8619 10.7348C21.9496 10.6457 22.038 10.6451 22.1271 10.7328L23.1289 11.7196C23.218 11.8074 23.2186 11.8957 23.1309 11.9848L12.0782 23.2053C11.9905 23.2944 11.9021 23.295 11.813 23.2073L10.8112 22.2204C10.7221 22.1327 10.7215 22.0443 10.8092 21.9553Z" fill="#1C1C1C"/>
</svg>
