<svg width="9" height="12" viewBox="0 0 9 12" fill="none" xmlns="http://www.w3.org/2000/svg">
<path fill-rule="evenodd" clip-rule="evenodd" d="M4.31918 0C4.4828 0 4.63971 0.0782971 4.75541 0.217666C4.8711 0.357036 4.9361 0.546061 4.9361 0.743159V9.3534L7.5839 6.16228C7.64126 6.09318 7.70935 6.03837 7.78429 6.00098C7.85923 5.96358 7.93956 5.94433 8.02067 5.94433C8.10179 5.94433 8.18211 5.96358 8.25705 6.00098C8.332 6.03837 8.40009 6.09318 8.45745 6.16228C8.51481 6.23137 8.56031 6.3134 8.59135 6.40368C8.62239 6.49396 8.63837 6.59072 8.63837 6.68843C8.63837 6.78615 8.62239 6.88291 8.59135 6.97319C8.56031 7.06347 8.51481 7.14549 8.45745 7.21459L4.75596 11.6735C4.69865 11.7428 4.63058 11.7977 4.55563 11.8351C4.48068 11.8726 4.40033 11.8919 4.31918 11.8919C4.23804 11.8919 4.15769 11.8726 4.08274 11.8351C4.00779 11.7977 3.93971 11.7428 3.88241 11.6735L0.180919 7.21459C0.12356 7.14549 0.0780613 7.06347 0.0470192 6.97319C0.0159772 6.88291 0 6.78615 0 6.68843C0 6.59072 0.0159772 6.49396 0.0470192 6.40368C0.0780613 6.3134 0.12356 6.23137 0.180919 6.16228C0.296759 6.02273 0.453872 5.94433 0.617694 5.94433C0.698811 5.94433 0.779134 5.96358 0.854076 6.00098C0.929018 6.03837 0.997112 6.09318 1.05447 6.16228L3.70227 9.3534V0.743159C3.70227 0.546061 3.76727 0.357036 3.88296 0.217666C3.99865 0.0782971 4.15557 0 4.31918 0Z" fill="black"/>
</svg>
