<svg width="16" height="16" viewBox="0 0 16 16" fill="none" xmlns="http://www.w3.org/2000/svg">
<path d="M15.4 3.202V0.64C15.4 0.286 15.114 0 14.76 0H1.24001C0.886012 0 0.600012 0.286 0.600012 0.64V3.202C0.266012 3.222 1.23919e-05 3.5 1.23919e-05 3.84V6.474C-0.00126842 6.95809 0.0967512 7.4373 0.288012 7.882C0.374012 8.086 0.480012 8.278 0.600012 8.46V15.36C0.600012 15.712 0.886012 16 1.24001 16H14.76C15.114 16 15.4 15.714 15.4 15.36V8.46C15.5219 8.27754 15.6263 8.08402 15.712 7.882C15.902 7.436 16 6.962 16 6.474V3.84C16 3.5 15.734 3.222 15.4 3.202ZM2.04001 1.44H13.96V3.2H2.04001V1.44ZM9.28001 14.562H6.72001V12.48H9.28001V14.562ZM13.96 14.562H10.56V11.84C10.56 11.486 10.274 11.2 9.92 11.2H6.08001C5.72601 11.2 5.44001 11.486 5.44001 11.84V14.562H2.04001V9.718C2.09801 9.746 2.15801 9.774 2.22001 9.798C2.66601 9.986 3.14001 10.08 3.62801 10.08C4.11601 10.08 4.58801 9.986 5.03601 9.798C5.31201 9.682 5.57201 9.534 5.81001 9.356C5.81401 9.354 5.81801 9.354 5.82201 9.356C6.06075 9.53476 6.32073 9.68322 6.59601 9.798C7.04201 9.986 7.51601 10.08 8.00401 10.08C8.49201 10.08 8.964 9.986 9.412 9.798C9.688 9.682 9.948 9.534 10.186 9.356C10.19 9.354 10.194 9.354 10.198 9.356C10.4367 9.53476 10.6967 9.68322 10.972 9.798C11.418 9.986 11.892 10.08 12.38 10.08C12.868 10.08 13.34 9.986 13.788 9.798C13.848 9.772 13.908 9.746 13.968 9.718V14.562H13.96ZM14.56 6.474C14.56 7.67 13.58 8.64 12.374 8.64C11.558 8.64 10.846 8.198 10.47 7.542C10.412 7.442 10.308 7.38 10.192 7.38H10.18C10.066 7.38 9.96 7.442 9.902 7.542C9.71012 7.87663 9.43307 8.1545 9.099 8.34735C8.76492 8.54021 8.38575 8.64118 8.00001 8.64C7.18601 8.64 6.47601 8.2 6.10001 7.546C6.04001 7.444 5.93201 7.38 5.81401 7.38C5.69601 7.38 5.58601 7.444 5.52801 7.546C5.33501 7.87935 5.0576 8.15598 4.7237 8.34803C4.3898 8.54008 4.0112 8.64079 3.62601 8.64C2.42001 8.64 1.44001 7.67 1.44001 6.474V4.65C1.44001 4.644 1.44401 4.64 1.45001 4.64H14.55C14.556 4.64 14.56 4.644 14.56 4.65V6.474Z" fill="black"/>
</svg>
