<svg width="12" height="12" viewBox="0 0 12 12" fill="none" xmlns="http://www.w3.org/2000/svg">
<path d="M4.25 2.96399H5.40469V8.24993C5.40469 8.31868 5.46094 8.37493 5.52969 8.37493H6.46719C6.53594 8.37493 6.59219 8.31868 6.59219 8.24993V2.96399H7.75C7.85469 2.96399 7.9125 2.84368 7.84844 2.76243L6.09844 0.546801C6.08674 0.531861 6.0718 0.519778 6.05475 0.511468C6.03769 0.503159 6.01897 0.49884 6 0.49884C5.98103 0.49884 5.96231 0.503159 5.94525 0.511468C5.92819 0.519778 5.91326 0.531861 5.90156 0.546801L4.15156 2.76086C4.0875 2.84368 4.14531 2.96399 4.25 2.96399ZM11.7188 7.78118H10.7812C10.7125 7.78118 10.6562 7.83743 10.6562 7.90618V10.3124H1.34375V7.90618C1.34375 7.83743 1.2875 7.78118 1.21875 7.78118H0.28125C0.2125 7.78118 0.15625 7.83743 0.15625 7.90618V10.9999C0.15625 11.2765 0.379687 11.4999 0.65625 11.4999H11.3438C11.6203 11.4999 11.8438 11.2765 11.8438 10.9999V7.90618C11.8438 7.83743 11.7875 7.78118 11.7188 7.78118Z" fill="black"/>
</svg>
