<svg width="10" height="10" viewBox="0 0 10 10" fill="none" xmlns="http://www.w3.org/2000/svg">
<path fill-rule="evenodd" clip-rule="evenodd" d="M4.61932 8.99502C4.34595 8.72166 4.34595 8.27844 4.61932 8.00507L7.62435 5.00005L4.61932 1.99502C4.34595 1.72166 4.34595 1.27844 4.61932 1.00507C4.89269 0.731707 5.3359 0.731707 5.60927 1.00507L9.10927 4.50507C9.38264 4.77844 9.38264 5.22166 9.10927 5.49502L5.60927 8.99502C5.3359 9.26839 4.89269 9.26839 4.61932 8.99502Z" fill="#71717A"/>
<path fill-rule="evenodd" clip-rule="evenodd" d="M0.41932 8.99502C0.145953 8.72166 0.145953 8.27844 0.41932 8.00507L3.42435 5.00005L0.41932 1.99502C0.145953 1.72166 0.145953 1.27844 0.41932 1.00507C0.692687 0.731707 1.1359 0.731707 1.40927 1.00507L4.90927 4.50507C5.18264 4.77844 5.18264 5.22166 4.90927 5.49502L1.40927 8.99502C1.1359 9.26839 0.692687 9.26839 0.41932 8.99502Z" fill="#71717A"/>
</svg>
