<svg width="7" height="10" viewBox="0 0 7 10" fill="none" xmlns="http://www.w3.org/2000/svg">
<path fill-rule="evenodd" clip-rule="evenodd" d="M0.707337 9.70692C0.519866 9.51939 0.414551 9.26508 0.414551 8.99992C0.414551 8.73475 0.519866 8.48045 0.707337 8.29292L4.00034 4.99992L0.707337 1.70692C0.525179 1.51832 0.424385 1.26571 0.426663 1.00352C0.428941 0.741321 0.534111 0.490509 0.719519 0.305101C0.904927 0.119692 1.15574 0.0145233 1.41794 0.0122448C1.68013 0.00996641 1.93273 0.110761 2.12134 0.292919L6.12134 4.29292C6.30881 4.48045 6.41412 4.73475 6.41412 4.99992C6.41412 5.26508 6.30881 5.51939 6.12134 5.70692L2.12134 9.70692C1.93381 9.89439 1.6795 9.99971 1.41434 9.99971C1.14917 9.99971 0.894865 9.89439 0.707337 9.70692Z" fill="#6B7280"/>
</svg>
