<svg width="7" height="10" viewBox="0 0 7 10" fill="none" xmlns="http://www.w3.org/2000/svg">
<path fill-rule="evenodd" clip-rule="evenodd" d="M6.12134 0.293031C6.30881 0.480558 6.41412 0.734866 6.41412 1.00003C6.41412 1.26519 6.30881 1.5195 6.12134 1.70703L2.82834 5.00003L6.12134 8.29303C6.30349 8.48163 6.40429 8.73423 6.40201 8.99643C6.39973 9.25863 6.29456 9.50944 6.10916 9.69485C5.92375 9.88026 5.67293 9.98543 5.41074 9.9877C5.14854 9.98998 4.89594 9.88919 4.70734 9.70703L0.707337 5.70703C0.519866 5.5195 0.414551 5.26519 0.414551 5.00003C0.414551 4.73487 0.519866 4.48056 0.707337 4.29303L4.70734 0.293031C4.89487 0.10556 5.14917 0.000244141 5.41434 0.000244141C5.6795 0.000244141 5.93381 0.10556 6.12134 0.293031Z" fill="#D1D5DB"/>
</svg>
